<svg width="23" height="16" viewBox="0 0 23 16" fill="none" xmlns="http://www.w3.org/2000/svg">
<rect x="0.5" y="0.5" width="22" height="15" rx="2" fill="white" stroke="#D9D9D9"/>
<path fill-rule="evenodd" clip-rule="evenodd" d="M12.3579 5.42798L11.1895 5.68236V4.72138L12.3579 4.47171V5.42798ZM7.60995 5.01816L6.47418 5.26311L6.46952 9.03637C6.46952 9.73355 6.9862 10.247 7.67511 10.247C8.05681 10.247 8.33609 10.1764 8.4897 10.0916V9.1353C8.34075 9.19654 7.60529 9.41323 7.60529 8.71605V7.04375H8.4897V6.04037H7.60529L7.60995 5.01816ZM4.85904 6.98252C4.61233 6.98252 4.46338 7.05318 4.46338 7.2369C4.46338 7.43749 4.71973 7.52573 5.03776 7.63519C5.55623 7.81365 6.23862 8.04854 6.24151 8.91862C6.24151 9.76183 5.57588 10.247 4.60768 10.247C4.20737 10.247 3.76982 10.1669 3.33692 9.97852V8.85738C3.72793 9.07407 4.22133 9.23423 4.60768 9.23423C4.86835 9.23423 5.05454 9.16357 5.05454 8.94688C5.05454 8.72469 4.77665 8.62313 4.44116 8.50052C3.93024 8.31379 3.28572 8.07824 3.28572 7.29343C3.28572 6.45963 3.91412 5.9603 4.85904 5.9603C5.24539 5.9603 5.62708 6.02154 6.01342 6.17699V7.284C5.65966 7.09087 5.2128 6.98252 4.85904 6.98252ZM18.3625 5.9603C19.4657 5.9603 20.0429 6.91186 20.0429 8.1178C20.0429 8.18269 20.0398 8.29105 20.0372 8.38317L20.0372 8.38339L20.0372 8.3837L20.0372 8.38394L20.0371 8.38415C20.0352 8.4521 20.0335 8.51109 20.0335 8.53705H17.7574C17.8086 9.09291 18.2089 9.25307 18.6604 9.25307C19.1212 9.25307 19.4843 9.15415 19.8008 8.99399V9.93612C19.4843 10.1151 19.0654 10.2423 18.5114 10.2423C17.3757 10.2423 16.5844 9.52629 16.5844 8.10838C16.5844 6.91186 17.2547 5.9603 18.3625 5.9603ZM18.3578 6.91658C18.0646 6.91658 17.7434 7.13798 17.7434 7.67028H18.9443C18.9443 7.13798 18.6418 6.91658 18.3578 6.91658ZM9.93743 6.38897L9.86295 6.04038H8.85752V10.1622H10.0212V7.36879C10.2958 7.00607 10.7613 7.07202 10.9056 7.12383V6.04038C10.7567 5.98385 10.2121 5.88021 9.93743 6.38897ZM11.1894 6.04037H12.3578V10.1622H11.1894V6.04037ZM14.7876 5.9603C14.3314 5.9603 14.0382 6.17699 13.8752 6.32774L13.8147 6.03567H12.7907V11.5283L13.9544 11.2787L13.959 9.94555C14.1266 10.068 14.3733 10.2423 14.7829 10.2423C15.6161 10.2423 16.3749 9.56398 16.3749 8.07069C16.3702 6.70459 15.6022 5.9603 14.7876 5.9603ZM14.5083 9.20595C14.2336 9.20595 14.0707 9.10703 13.959 8.98455L13.9544 7.23689C14.0754 7.10028 14.243 7.00606 14.5083 7.00606C14.9319 7.00606 15.2251 7.48655 15.2251 8.10365C15.2251 8.73488 14.9365 9.20595 14.5083 9.20595Z" fill="#6461FC"/>
</svg>
