<svg width="23" height="16" viewBox="0 0 23 16" fill="none" xmlns="http://www.w3.org/2000/svg">
<rect x="0.5" y="0.5" width="22" height="15" rx="2" fill="white" stroke="#D9D9D9"/>
<path d="M7.11543 3.33488H10.7401C11.2461 3.33488 11.5607 3.75326 11.4427 4.26827L9.75518 11.6185C9.63609 12.1317 9.1295 12.5505 8.62318 12.5505H4.99888C4.49361 12.5505 4.17821 12.1317 4.29624 11.6185L5.98449 4.26827C6.10252 3.75326 6.60884 3.33488 7.11543 3.33488Z" fill="#E21836"/>
<path d="M10.4382 3.33334H14.6065C15.1123 3.33334 14.8842 3.75172 14.7652 4.26673L13.078 11.617C12.9596 12.1302 12.9965 12.5489 12.4896 12.5489H8.32129C7.81435 12.5489 7.50063 12.1302 7.61972 11.617L9.3069 4.26673C9.4267 3.75172 9.93197 3.33334 10.4382 3.33334Z" fill="#00447C"/>
<path d="M14.4412 3.33334H18.0659C18.5725 3.33334 18.8872 3.75172 18.7682 4.26673L17.081 11.617C16.9619 12.1302 16.4549 12.5489 15.9483 12.5489H12.3254C11.8184 12.5489 11.504 12.1302 11.6227 11.617L13.3103 4.26673C13.4283 3.75172 13.9343 3.33334 14.4412 3.33334Z" fill="#007B84"/>
<path d="M8.06179 5.68887C7.68905 5.69272 7.57897 5.68887 7.54381 5.68044C7.53029 5.7456 7.27876 6.92269 7.27806 6.92368C7.2239 7.16182 7.1845 7.33157 7.05065 7.44119C6.97467 7.50492 6.88597 7.53566 6.78313 7.53566C6.61783 7.53566 6.52153 7.45239 6.50537 7.29447L6.50227 7.24024C6.50227 7.24024 6.55263 6.92126 6.55263 6.91946C6.55263 6.91946 6.81662 5.84679 6.86388 5.705C6.86636 5.69693 6.86706 5.69272 6.86768 5.68887C6.35385 5.69344 6.26276 5.68887 6.25649 5.68044C6.25304 5.692 6.24032 5.75851 6.24032 5.75851L5.97077 6.9675L5.94762 7.07004L5.90283 7.40543C5.90283 7.50492 5.92209 7.58612 5.96043 7.65477C6.08324 7.87248 6.43354 7.90511 6.6317 7.90511C6.88703 7.90511 7.12654 7.85008 7.28839 7.7496C7.56934 7.58119 7.64285 7.31795 7.7084 7.08402L7.73879 6.96401C7.73879 6.96401 8.01073 5.84993 8.05693 5.705C8.0587 5.69693 8.05941 5.69272 8.06179 5.68887ZM8.98703 6.58761C8.92148 6.58761 8.80168 6.60374 8.69407 6.65725C8.65502 6.67759 8.61809 6.70108 8.57913 6.72447L8.61429 6.59567L8.59503 6.57398C8.36683 6.62086 8.31577 6.62713 8.10497 6.65725L8.0873 6.66917C8.06283 6.87504 8.04109 7.02983 7.95036 7.4345C7.91581 7.58365 7.87995 7.73422 7.84399 7.883L7.85371 7.90192C8.06972 7.89035 8.13527 7.89035 8.32301 7.89349L8.33821 7.87673C8.36206 7.75277 8.36515 7.72374 8.41798 7.47269C8.44281 7.35366 8.49458 7.09212 8.52011 6.999C8.56703 6.97695 8.61332 6.95526 8.6575 6.95526C8.76272 6.95526 8.74991 7.04839 8.74584 7.08549C8.74134 7.14778 8.703 7.35124 8.66368 7.52593L8.63744 7.63868C8.61915 7.72194 8.5991 7.80288 8.58081 7.88542L8.58876 7.90192C8.80168 7.89035 8.86662 7.89035 9.04844 7.89349L9.06982 7.87673C9.10268 7.68313 9.11231 7.63133 9.17062 7.34945L9.19995 7.21993C9.25694 6.96646 9.28556 6.83794 9.24245 6.73325C9.19686 6.61593 9.08749 6.58761 8.98703 6.58761ZM10.0206 6.85299C9.90746 6.87503 9.83528 6.88973 9.76354 6.89923C9.69242 6.9108 9.62307 6.92128 9.51369 6.9367L9.50504 6.94468L9.49708 6.95104C9.48569 7.03368 9.47774 7.10511 9.46263 7.18909C9.44982 7.27594 9.43012 7.37462 9.39805 7.51642C9.37322 7.62496 9.36041 7.66278 9.34627 7.70096C9.33249 7.73914 9.3173 7.77625 9.28938 7.883L9.29592 7.89285L9.30139 7.90191C9.40361 7.89698 9.47049 7.89348 9.53923 7.89285C9.60787 7.89035 9.67899 7.89285 9.78907 7.89348L9.7987 7.88551L9.80904 7.87672C9.82494 7.78046 9.82733 7.75456 9.83705 7.70759C9.84668 7.65722 9.86329 7.58749 9.90401 7.40124C9.92327 7.31377 9.94474 7.22656 9.96471 7.13729C9.98547 7.04838 10.0072 6.96081 10.0279 6.87333L10.0248 6.86276L10.0206 6.85299ZM10.023 6.49517C9.92021 6.4336 9.73971 6.45314 9.61824 6.53819C9.49711 6.62155 9.48333 6.73986 9.58581 6.80224C9.68688 6.86211 9.86808 6.84427 9.9885 6.7585C10.1094 6.67335 10.1245 6.55612 10.023 6.49517ZM10.645 7.9212C10.853 7.9212 11.0663 7.86304 11.2268 7.69041C11.3503 7.55041 11.407 7.34212 11.4266 7.25634C11.4905 6.97204 11.4407 6.8393 11.3783 6.75846C11.2834 6.63522 11.1157 6.59569 10.9417 6.59569C10.8371 6.59569 10.588 6.60618 10.3934 6.78821C10.2536 6.91952 10.189 7.0977 10.15 7.26853C10.1107 7.44259 10.0655 7.75593 10.3495 7.87254C10.4372 7.91072 10.5635 7.9212 10.645 7.9212ZM10.6287 7.28153C10.6767 7.06624 10.7333 6.88555 10.8779 6.88555C10.9911 6.88555 10.9993 7.01999 10.949 7.236C10.94 7.28395 10.8986 7.46222 10.8427 7.53813C10.8036 7.59415 10.7574 7.62812 10.7064 7.62812C10.6912 7.62812 10.6008 7.62812 10.5994 7.49197C10.5987 7.42475 10.6122 7.3561 10.6287 7.28153ZM11.9467 7.89352L11.9629 7.87676C11.986 7.7528 11.9898 7.72367 12.0409 7.47271C12.0664 7.35369 12.1192 7.09215 12.1441 6.99903C12.1911 6.97689 12.2366 6.9552 12.2821 6.9552C12.3867 6.9552 12.3739 7.04832 12.3698 7.08543C12.366 7.14781 12.3276 7.35118 12.2876 7.52586L12.2628 7.63861C12.2438 7.72197 12.2231 7.80281 12.2048 7.88545L12.2128 7.90194C12.4264 7.89038 12.4889 7.89038 12.6718 7.89352L12.6939 7.87676C12.7259 7.68307 12.7346 7.63127 12.7947 7.34947L12.8233 7.21987C12.8805 6.9664 12.9095 6.83796 12.8671 6.73328C12.8202 6.61596 12.7101 6.58763 12.6111 6.58763C12.5454 6.58763 12.425 6.60368 12.318 6.65727C12.2798 6.67762 12.2414 6.70101 12.2038 6.7245L12.2366 6.5957L12.219 6.57392C11.9909 6.62088 11.9387 6.62716 11.7282 6.65727L11.712 6.66919C11.6865 6.87507 11.6657 7.02977 11.575 7.43453C11.5405 7.58367 11.5046 7.73425 11.4687 7.88303L11.4784 7.90194C11.6947 7.89038 11.7593 7.89038 11.9467 7.89352ZM13.5162 7.9019C13.5297 7.83539 13.6094 7.44121 13.6102 7.44121C13.6102 7.44121 13.6781 7.15198 13.6822 7.14149C13.6822 7.14149 13.7036 7.11138 13.725 7.09946H13.7565C14.0532 7.09946 14.3883 7.09946 14.651 6.90344C14.8297 6.769 14.9519 6.57047 15.0064 6.32919C15.0205 6.27003 15.031 6.19968 15.031 6.12932C15.031 6.03691 15.0127 5.94549 14.9598 5.87406C14.8259 5.68395 14.5592 5.68046 14.2513 5.67903C14.2503 5.67903 14.0995 5.68046 14.0995 5.68046C13.7054 5.68539 13.5473 5.68395 13.4824 5.67589C13.4769 5.70502 13.4666 5.75682 13.4666 5.75682C13.4666 5.75682 13.3254 6.42061 13.3254 6.42169C13.3254 6.42169 12.9876 7.83297 12.9717 7.89948C13.3158 7.89527 13.4569 7.89527 13.5162 7.9019ZM13.7778 6.72275C13.7778 6.72275 13.9279 6.0603 13.9272 6.06281L13.9321 6.02884L13.9342 6.00294L13.9942 6.00922C13.9942 6.00922 14.3038 6.03619 14.311 6.03691C14.4332 6.08486 14.4836 6.20846 14.4484 6.36979C14.4163 6.51723 14.3221 6.64119 14.2009 6.70106C14.1012 6.75179 13.979 6.756 13.8531 6.756H13.7717L13.7778 6.72275ZM14.7124 7.2938C14.6727 7.46535 14.6272 7.77869 14.9098 7.89036C14.9999 7.92926 15.0807 7.94082 15.1627 7.93661C15.2494 7.93186 15.3297 7.88776 15.4041 7.82431C15.3974 7.85039 15.3907 7.87647 15.3839 7.90264L15.3968 7.9194C15.6 7.91071 15.6631 7.91071 15.8834 7.91241L15.9033 7.897C15.9355 7.70519 15.9658 7.51894 16.0494 7.152C16.0901 6.97624 16.1308 6.80218 16.1725 6.62714L16.166 6.60787C15.9386 6.65062 15.8778 6.65977 15.6591 6.69123L15.6425 6.70494C15.6402 6.72277 15.6379 6.73989 15.6358 6.75701C15.6018 6.70126 15.5525 6.65367 15.4764 6.624C15.3792 6.58519 15.1507 6.63521 14.9543 6.81662C14.8163 6.94613 14.7501 7.12359 14.7124 7.2938ZM15.19 7.30428C15.2387 7.09285 15.2946 6.91395 15.4395 6.91395C15.5311 6.91395 15.5794 6.99973 15.5696 7.146C15.5618 7.18248 15.5534 7.22093 15.5434 7.2644C15.5289 7.32723 15.5132 7.38952 15.4979 7.4519C15.4824 7.49456 15.4643 7.53481 15.4444 7.56161C15.4071 7.6152 15.3184 7.64846 15.2673 7.64846C15.2528 7.64846 15.1634 7.64846 15.1603 7.51473C15.1596 7.44814 15.1732 7.37957 15.19 7.30428ZM17.6841 6.60616L17.6666 6.58581C17.4415 6.63206 17.4008 6.63941 17.1941 6.66773L17.1789 6.68315C17.1782 6.68566 17.1775 6.68951 17.1765 6.69301L17.1758 6.68951C17.0219 7.04973 17.0264 6.97202 16.9011 7.25561C16.9004 7.2427 16.9004 7.23463 16.8997 7.22092L16.8683 6.60616L16.8486 6.58581C16.6129 6.63206 16.6073 6.63941 16.3897 6.66773L16.3727 6.68315C16.3703 6.6905 16.3703 6.69857 16.3689 6.70735L16.3703 6.71049C16.3975 6.85156 16.391 6.8201 16.4183 7.04274C16.431 7.152 16.448 7.26188 16.4607 7.36979C16.4822 7.55039 16.4942 7.63931 16.5204 7.91491C16.3734 8.16103 16.3386 8.25416 16.1971 8.47016L16.198 8.47231L16.0984 8.63221C16.087 8.64906 16.0766 8.66062 16.0622 8.66555C16.0463 8.67353 16.0256 8.67496 15.9969 8.67496H15.9416L15.8596 8.95191L16.1411 8.95684C16.3064 8.95613 16.4103 8.8777 16.4663 8.7723L16.6433 8.46451H16.6405L16.6591 8.44282C16.7782 8.18272 17.6841 6.60616 17.6841 6.60616ZM14.7124 10.2435H14.593L15.0351 8.76006H15.1817L15.2283 8.60725L15.2328 8.77718C15.2273 8.88223 15.3088 8.97535 15.5227 8.95993H15.7702L15.8554 8.67429H15.7622C15.7087 8.67429 15.6839 8.66058 15.687 8.63118L15.6825 8.45828H15.2242V8.45918C15.076 8.46232 14.6336 8.47361 14.544 8.49781C14.4356 8.52613 14.3214 8.60949 14.3214 8.60949L14.3663 8.45649H13.9376L13.8483 8.76006L13.4003 10.2662H13.3133L13.2281 10.5498H14.0819L14.0532 10.6443H14.474L14.5019 10.5498H14.6199L14.7124 10.2435ZM14.3621 9.06148C14.2935 9.08075 14.1657 9.13919 14.1657 9.13919L14.2793 8.76006H14.6199L14.5377 9.0363C14.5377 9.0363 14.4325 9.04257 14.3621 9.06148ZM14.3686 9.60311C14.3686 9.60311 14.2617 9.61673 14.1912 9.63286C14.1219 9.6542 13.9918 9.72142 13.9918 9.72142L14.1092 9.32687H14.4515L14.3686 9.60311ZM14.1778 10.247H13.8362L13.9352 9.91403H14.2758L14.1778 10.247ZM15.0006 9.32687H15.493L15.4222 9.55937H14.9233L14.8483 9.81355H15.285L14.9544 10.2858C14.9312 10.3205 14.9104 10.3328 14.8874 10.3425C14.8642 10.3545 14.8339 10.3684 14.7987 10.3684H14.6776L14.5943 10.6468H14.9112C15.0758 10.6468 15.1731 10.5708 15.2449 10.4711L15.4716 10.1563L15.5203 10.4759C15.5307 10.5358 15.5731 10.5708 15.6018 10.5844C15.6335 10.6006 15.6663 10.6283 15.7126 10.6324C15.7622 10.6346 15.7981 10.6363 15.8219 10.6363H15.9776L16.0711 10.3247H16.0097C15.9744 10.3247 15.9137 10.3187 15.9034 10.3075C15.8931 10.2939 15.8931 10.2729 15.8875 10.241L15.8381 9.92066H15.6359L15.7246 9.81355H16.2226L16.2992 9.55937H15.8381L15.9099 9.32687H16.3696L16.4549 9.04015H15.0844L15.0006 9.32687ZM10.8413 10.3117L10.9562 9.92382H11.4286L11.515 9.63531H11.0421L11.1143 9.39654H11.5764L11.662 9.11717H10.5058L10.422 9.39654H10.6847L10.6146 9.63531H10.3512L10.2639 9.92875H10.5265L10.3733 10.442C10.3526 10.5099 10.383 10.5358 10.4023 10.5674C10.422 10.5981 10.442 10.6184 10.4868 10.63C10.5331 10.6405 10.5649 10.6468 10.608 10.6468H11.1405L11.2354 10.3272L10.9994 10.36C10.9538 10.36 10.8275 10.3545 10.8413 10.3117ZM10.8955 8.45474L10.7758 8.67424C10.7502 8.7222 10.7271 8.75195 10.7063 8.76566C10.688 8.77723 10.6518 8.78207 10.5993 8.78207H10.5369L10.4534 9.06287H10.6608C10.7606 9.06287 10.8372 9.02577 10.8737 9.00721C10.9131 8.98588 10.9234 8.99807 10.9538 8.96831L11.0239 8.90674H11.6716L11.7576 8.61437H11.2834L11.3662 8.45474H10.8955ZM11.8518 10.3174C11.8408 10.3012 11.8487 10.2728 11.8656 10.2137L12.0426 9.61917H12.6725C12.7643 9.61782 12.8305 9.61675 12.8736 9.61361C12.9199 9.60868 12.9703 9.59192 13.0251 9.56181C13.0818 9.53026 13.1108 9.49701 13.1352 9.45882C13.1625 9.42073 13.2063 9.33738 13.244 9.20885L13.4665 8.45651L12.8129 8.46036C12.8129 8.46036 12.6117 8.49048 12.5231 8.52373C12.4337 8.56084 12.3059 8.66445 12.3059 8.66445L12.3649 8.45821H11.9612L11.3959 10.36C11.3759 10.4339 11.3624 10.4875 11.3593 10.5197C11.3583 10.5544 11.4025 10.5887 11.4311 10.6146C11.4649 10.6405 11.5149 10.6363 11.5629 10.6405C11.6133 10.6443 11.6851 10.6468 11.7841 10.6468H12.0944L12.1896 10.3205L11.9119 10.3471C11.8822 10.3471 11.8607 10.331 11.8518 10.3174ZM12.1569 9.21763H12.8184L12.7764 9.35136C12.7704 9.3545 12.7563 9.34473 12.689 9.35279H12.1161L12.1569 9.21763ZM12.2894 8.76913H12.9565L12.9085 8.9302C12.9085 8.9302 12.5941 8.92706 12.5437 8.93647C12.3222 8.97537 12.1927 9.09547 12.1927 9.09547L12.2894 8.76913ZM12.7912 9.79917C12.7857 9.81916 12.777 9.83135 12.7649 9.84049C12.7515 9.84927 12.7298 9.85241 12.6973 9.85241H12.6031L12.6086 9.68955H12.2166L12.2006 10.4857C12.2 10.5432 12.2055 10.5764 12.2469 10.603C12.2884 10.6363 12.416 10.6405 12.5879 10.6405H12.8336L12.9223 10.3425L12.7084 10.3544L12.6373 10.3586C12.6275 10.3544 12.6183 10.3506 12.6079 10.3401C12.5989 10.331 12.5837 10.3366 12.5862 10.2791L12.5879 10.075L12.8122 10.0656C12.9333 10.0656 12.9851 10.0257 13.0293 9.98757C13.0714 9.95109 13.0852 9.90914 13.1011 9.85241L13.1387 9.67172H12.8305L12.7912 9.79917Z" fill="#FEFEFE"/>
</svg>
